<svg width="130" height="132" viewBox="0 0 130 132" fill="none" xmlns="http://www.w3.org/2000/svg">
<path d="M30.3481 80.1025H29.1374C29.2824 79.6184 29.3611 79.1063 29.3611 78.5754C29.3611 75.6402 26.9817 73.2613 24.047 73.2613C23.7942 73.2613 23.5452 73.2802 23.3015 73.3141C22.2687 70.8684 19.8483 69.1526 17.0268 69.1526C13.9827 69.1526 11.4055 71.1509 10.5344 73.9071C9.93977 73.6769 9.29398 73.5497 8.61799 73.5497C5.6828 73.5497 3.30391 75.9291 3.30391 78.8638C3.30391 79.3069 3.3589 79.737 3.46132 80.1484C1.50183 80.4448 0 82.1359 0 84.1784C0 86.4295 1.82473 88.2537 4.07531 88.2537H30.3481C32.5993 88.2537 34.4235 86.429 34.4235 84.1784C34.424 81.9273 32.5993 80.1025 30.3481 80.1025Z" fill="#E0EBFC"/>
<path d="M51.998 86.1023L54.144 100.605H50.8142L48.6687 86.1023H51.998Z" fill="#F9CFCF"/>
<path d="M77.4509 86.1023L75.3049 100.605H78.6347L80.7807 86.1023H77.4509Z" fill="#F9CFCF"/>
<path d="M66.5741 86.1023H62.8745V100.605H66.5741V86.1023Z" fill="#F9CFCF"/>
<path d="M86.5055 75.0041H42.959C44.043 77.9398 45.0182 81.1122 45.6753 84.3245C45.8866 85.3584 46.7917 86.1028 47.8472 86.1028H81.5801C82.6286 86.1028 83.5331 85.3692 83.7477 84.3433C84.4215 81.1192 85.4112 77.9403 86.5055 75.0041Z" fill="#6BDDDD"/>
<path d="M56.0516 75.0041H73.3593C74.5749 66.7974 76.1096 60.499 76.1096 60.499H76.1053C78.0103 54.2604 79.1483 46.4262 79.1483 37.9106C79.1478 17.5686 72.6736 1.07812 64.6874 1.07812C56.7012 1.07812 50.2271 17.568 50.2271 37.9101C50.2271 46.7319 51.4459 54.827 53.4765 61.169C53.9428 63.2067 55.1013 68.5283 56.0516 75.0041Z" fill="#F9CFCF"/>
<path d="M65.9565 32.865L68.0346 37.0756C68.2788 37.57 68.7499 37.9123 69.2954 37.9915L73.9421 38.6664C75.3157 38.8659 75.8639 40.5542 74.8704 41.5229L71.5083 44.8004C71.1137 45.1853 70.9336 45.7395 71.0269 46.2828L71.8204 50.9107C72.0549 52.2788 70.6194 53.3219 69.3908 52.6761L65.2347 50.4913C64.7468 50.2347 64.1641 50.2347 63.6762 50.4913L59.5201 52.6761C58.2915 53.3219 56.8555 52.2788 57.0905 50.9107L57.884 46.2828C57.9773 45.7395 57.7972 45.1853 57.4026 44.8004L54.0405 41.5229C53.0465 40.5542 53.5952 38.8659 54.9688 38.6664L59.6155 37.9915C60.161 37.9123 60.6327 37.5694 60.8764 37.0756L62.9544 32.865C63.5674 31.6203 65.3419 31.6203 65.9565 32.865Z" fill="#FFEA92"/>
<path d="M126.187 60.3917H125.24C125.353 60.0133 125.415 59.6122 125.415 59.1972C125.415 56.9013 123.554 55.0399 121.258 55.0399C121.06 55.0399 120.865 55.0545 120.674 55.0814C119.866 53.1683 117.973 51.8255 115.766 51.8255C113.384 51.8255 111.368 53.3888 110.687 55.545C110.222 55.365 109.716 55.2652 109.188 55.2652C106.892 55.2652 105.03 57.1266 105.03 59.4225C105.03 59.7691 105.073 60.1055 105.153 60.4278C103.62 60.6596 102.446 61.9825 102.446 63.5797C102.446 65.3408 103.873 66.7677 105.634 66.7677H126.186C127.947 66.7677 129.374 65.3403 129.374 63.5797C129.375 61.8191 127.948 60.3917 126.187 60.3917Z" fill="#E0EBFC"/>
<path d="M117.562 115.376H116.615C116.728 114.998 116.79 114.597 116.79 114.182C116.79 111.886 114.929 110.024 112.633 110.024C112.435 110.024 112.24 110.039 112.049 110.066C111.241 108.153 109.348 106.81 107.141 106.81C104.759 106.81 102.743 108.373 102.062 110.529C101.597 110.349 101.091 110.25 100.563 110.25C98.2667 110.25 96.4054 112.111 96.4054 114.407C96.4054 114.753 96.4485 115.09 96.5283 115.412C94.9952 115.644 93.8206 116.967 93.8206 118.565C93.8206 120.326 95.248 121.753 97.0086 121.753H117.561C119.322 121.753 120.749 120.325 120.749 118.565C120.75 116.804 119.323 115.376 117.562 115.376Z" fill="#E0EBFC"/>
<path d="M76.4795 130.453H52.7181C49.0406 130.453 46.0591 127.472 46.0591 123.794V101.715C46.0591 101.102 46.5561 100.605 47.169 100.605H82.0286C82.6415 100.605 83.1385 101.102 83.1385 101.715V123.794C83.139 127.472 80.1575 130.453 76.4795 130.453Z" fill="#A4C9FF"/>
<path d="M76.4795 131.531H52.7187C48.452 131.531 44.981 128.061 44.981 123.794V101.715C44.981 100.508 45.9626 99.526 47.1695 99.526H82.0291C83.2355 99.526 84.2172 100.508 84.2172 101.715V123.794C84.2172 128.061 80.7461 131.531 76.4795 131.531ZM47.1695 101.683L47.1372 123.794C47.1372 126.872 49.6412 129.376 52.7187 129.376H76.4795C79.557 129.376 82.0609 126.872 82.0609 123.794V101.715L47.1695 101.683Z" fill="#3762CC"/>
<path d="M30.3481 80.1025H29.1374C29.2824 79.6184 29.3611 79.1063 29.3611 78.5754C29.3611 75.6402 26.9817 73.2613 24.047 73.2613C23.7942 73.2613 23.5452 73.2802 23.3015 73.3141C22.2687 70.8684 19.8483 69.1526 17.0268 69.1526C13.9827 69.1526 11.4055 71.1509 10.5344 73.9071C9.93977 73.6769 9.29398 73.5497 8.61799 73.5497C5.6828 73.5497 3.30391 75.9291 3.30391 78.8638C3.30391 79.3069 3.3589 79.737 3.46132 80.1484C1.50183 80.4448 0 82.1359 0 84.1784C0 86.4295 1.82473 88.2537 4.07531 88.2537H30.3481C32.5993 88.2537 34.4235 86.429 34.4235 84.1784C34.424 81.9273 32.5993 80.1025 30.3481 80.1025Z" fill="#E0EBFC"/>
<path d="M51.998 86.1023L54.144 100.605H50.8142L48.6687 86.1023H51.998Z" fill="#F9CFCF"/>
<path d="M79.1478 37.9106C79.1478 46.4262 78.0104 54.2604 76.1048 60.499H76.1092C76.1092 60.499 74.5744 66.7974 73.3589 75.0041H76.9318H86.5055C89.5636 66.7974 93.4255 60.499 93.4255 60.499H93.4152C98.2086 54.2604 101.071 46.4262 101.071 37.9106C101.071 17.5686 84.7816 1.07812 64.6875 1.07812C72.6737 1.07812 79.1478 17.5686 79.1478 37.9106Z" fill="#F9A7A7"/>
<path d="M42.9589 75.0041H56.0517C55.1013 68.5289 53.9434 63.2072 53.4771 61.1696C51.4464 54.8275 50.2276 46.7329 50.2276 37.9106C50.2271 17.5686 56.7012 1.07812 64.6874 1.07812C44.5933 1.07812 28.304 17.568 28.304 37.9101C28.304 46.7319 31.3712 54.827 36.4805 61.169C37.6535 63.2067 40.5676 68.5283 42.9589 75.0041Z" fill="#F9A7A7"/>
<path d="M77.4509 86.1023L75.3049 100.605H78.6347L80.7807 86.1023H77.4509Z" fill="#F9CFCF"/>
<path d="M66.5741 86.1023H62.8745V100.605H66.5741V86.1023Z" fill="#F9CFCF"/>
<path d="M56.0516 75.0041H73.3593C74.5749 66.7974 76.1096 60.499 76.1096 60.499H76.1053C78.0103 54.2604 79.1483 46.4262 79.1483 37.9106C79.1478 17.5686 72.6736 1.07812 64.6874 1.07812C56.7012 1.07812 50.2271 17.568 50.2271 37.9101C50.2271 46.7319 51.4459 54.827 53.4765 61.169C53.9428 63.2067 55.1013 68.5283 56.0516 75.0041Z" fill="#F9CFCF"/>
<path d="M65.9565 32.865L68.0346 37.0756C68.2788 37.57 68.7499 37.9123 69.2954 37.9915L73.9421 38.6664C75.3157 38.8659 75.8639 40.5542 74.8704 41.5229L71.5083 44.8004C71.1137 45.1853 70.9336 45.7395 71.0269 46.2828L71.8204 50.9107C72.0549 52.2788 70.6194 53.3219 69.3908 52.6761L65.2347 50.4913C64.7468 50.2347 64.1641 50.2347 63.6762 50.4913L59.5201 52.6761C58.2915 53.3219 56.8555 52.2788 57.0905 50.9107L57.884 46.2828C57.9773 45.7395 57.7972 45.1853 57.4026 44.8004L54.0405 41.5229C53.0465 40.5542 53.5952 38.8659 54.9688 38.6664L59.6155 37.9915C60.161 37.9123 60.6327 37.5694 60.8764 37.0756L62.9544 32.865C63.5674 31.6203 65.3419 31.6203 65.9565 32.865Z" fill="#FFEA92"/>
<path d="M82.4452 107.231H46.9296C45.0909 107.231 43.5999 105.74 43.5999 103.901C43.5999 102.062 45.0904 100.571 46.9296 100.571H82.4452C84.284 100.571 85.775 102.062 85.775 103.901C85.7745 105.74 84.284 107.231 82.4452 107.231Z" fill="#4671C6"/>
<path d="M86.5055 76.0822H42.9584C42.5072 76.0822 42.1035 75.8013 41.9471 75.3771C39.6017 69.0264 36.749 63.8024 35.5873 61.7793C30.1945 55.0528 27.2253 46.5798 27.2253 37.9101C27.2259 17.0063 44.0312 0 64.6875 0C85.3438 0 102.149 17.0063 102.149 37.9101C102.149 46.3615 99.4538 54.3591 94.3543 61.0456C94.351 61.051 94.3478 61.0569 94.344 61.0618C94.3063 61.1238 90.4983 67.3753 87.5152 75.3803C87.3583 75.8024 86.9556 76.0822 86.5055 76.0822ZM43.7061 73.9259H85.76C88.5723 66.5807 91.8832 60.9685 92.4325 60.0564C92.4665 59.9809 92.509 59.9092 92.5602 59.8419C97.4231 53.5133 99.9928 45.9292 99.9928 37.9101C99.9928 18.1955 84.1547 2.15625 64.6875 2.15625C45.2203 2.15625 29.3821 18.1955 29.3821 37.9101C29.3821 46.1184 32.2009 54.138 37.3204 60.493C37.3554 60.5367 37.3872 60.5831 37.4152 60.6316C38.5338 62.5749 41.3288 67.6642 43.7061 73.9259Z" fill="#3762CC"/>
<path d="M81.5802 87.181H47.8472C46.2888 87.181 44.932 86.0705 44.6193 84.5412C44.0323 81.6712 43.1331 78.5883 41.9477 75.3787C41.8254 75.0477 41.8728 74.6779 42.0744 74.3885C42.276 74.0995 42.6059 73.927 42.959 73.927H86.5056C86.8587 73.927 87.1896 74.1001 87.3913 74.3901C87.5929 74.6801 87.6392 75.0504 87.5158 75.3814C86.3174 78.5975 85.4048 81.6868 84.8032 84.5644C84.4862 86.0802 83.131 87.181 81.5802 87.181ZM44.49 76.0827C45.4592 78.8756 46.2117 81.5693 46.7314 84.1088C46.8397 84.6398 47.3087 85.0247 47.8467 85.0247H81.5796C82.1149 85.0247 82.5823 84.6458 82.6917 84.1229C83.2238 81.5779 83.9881 78.8794 84.9692 76.0827H44.49Z" fill="#3762CC"/>
<path d="M82.4446 108.309H46.9301C44.4995 108.309 42.5222 106.332 42.5222 103.901C42.5222 101.47 44.4995 99.4931 46.9301 99.4931H82.4452C84.8758 99.4931 86.8531 101.47 86.8531 103.901C86.8531 106.332 84.8753 108.309 82.4446 108.309ZM46.9301 101.649C45.6887 101.649 44.6785 102.66 44.6785 103.901C44.6785 105.143 45.6887 106.153 46.9301 106.153H82.4452C83.6866 106.153 84.6968 105.143 84.6968 103.901C84.6968 102.66 83.6866 101.649 82.4452 101.649H46.9301Z" fill="#3762CC"/>
<path d="M126.187 60.3917H125.24C125.353 60.0133 125.415 59.6122 125.415 59.1972C125.415 56.9013 123.554 55.0399 121.258 55.0399C121.06 55.0399 120.865 55.0545 120.674 55.0814C119.866 53.1683 117.973 51.8255 115.766 51.8255C113.384 51.8255 111.368 53.3888 110.687 55.545C110.222 55.365 109.716 55.2652 109.188 55.2652C106.892 55.2652 105.03 57.1266 105.03 59.4225C105.03 59.7691 105.073 60.1055 105.153 60.4278C103.62 60.6596 102.446 61.9825 102.446 63.5797C102.446 65.3408 103.873 66.7677 105.634 66.7677H126.186C127.947 66.7677 129.374 65.3403 129.374 63.5797C129.375 61.8191 127.948 60.3917 126.187 60.3917Z" fill="#E0EBFC"/>
<path d="M117.562 115.376H116.615C116.728 114.998 116.79 114.597 116.79 114.182C116.79 111.886 114.929 110.024 112.633 110.024C112.435 110.024 112.24 110.039 112.049 110.066C111.241 108.153 109.348 106.81 107.141 106.81C104.759 106.81 102.743 108.373 102.062 110.529C101.597 110.349 101.091 110.25 100.563 110.25C98.2667 110.25 96.4054 112.111 96.4054 114.407C96.4054 114.753 96.4485 115.09 96.5283 115.412C94.9952 115.644 93.8206 116.967 93.8206 118.565C93.8206 120.326 95.248 121.753 97.0086 121.753H117.561C119.322 121.753 120.749 120.325 120.749 118.565C120.75 116.804 119.323 115.376 117.562 115.376Z" fill="#E0EBFC"/>
</svg>
