<svg width="738" height="794" viewBox="0 0 738 794" fill="none" xmlns="http://www.w3.org/2000/svg">
<path fill-rule="evenodd" clip-rule="evenodd" d="M515.543 1.68988C581.954 -5.9078 580.052 33.4781 629 79C678.936 125.441 729.101 136.558 733.721 204.595C737.007 252.985 739.569 298.332 734.217 346.537C727.293 408.908 739.527 479.555 697.975 526.581C653.969 576.383 581.369 603.159 515.543 594.015C452.161 585.211 415.431 521.853 366.56 480.543C322.289 443.121 258.958 419.755 243.345 363.928C227.848 308.521 270.204 256.261 288.585 201.743C306.696 148.025 307.462 85.1041 349.988 47.6191C394.028 8.80032 457.218 8.36252 515.543 1.68988Z" fill="#F57300"/>
<path fill-rule="evenodd" clip-rule="evenodd" d="M250.348 401.989C297.252 371.716 333.028 279.38 382.6 301.342C425.721 320.446 387.557 418.195 407.302 471.525C432.568 539.768 515.275 572.182 510.827 647.684C506.615 719.189 442.916 770.944 388.817 785.294C339.21 798.454 300.977 716.104 250.348 716.782C198.698 717.474 156.721 817.049 109.789 789.031C66.0651 762.928 91.5808 670.411 74.6638 611.9C56.4454 548.889 -24.7897 487.917 7.50941 435.281C46.029 372.509 126.802 435.201 188.264 426.775C210.334 423.75 230.473 414.817 250.348 401.989Z" fill="#FAE889"/>
<path fill-rule="evenodd" clip-rule="evenodd" d="M391.327 50.0209C495.417 51.3968 582.511 123.253 642.361 208.427C697.432 286.802 716.408 384.642 691.438 477.118C667.649 565.223 597.446 626.62 517.54 670.705C429.902 719.056 329.979 766.433 237.817 727.386C141.973 686.778 91.909 583.695 71.3372 481.655C51.4846 383.184 72.0075 282.375 131.831 201.679C194.606 117.003 285.929 48.6278 391.327 50.0209Z" fill="#FFBA7D"/>
<path fill-rule="evenodd" clip-rule="evenodd" d="M543.407 590.077C557.909 580.739 568.972 552.256 584.299 559.031C597.632 564.924 585.832 595.076 591.937 611.527C599.749 632.578 625.322 642.576 623.947 665.866C622.644 687.923 602.949 703.888 586.221 708.315C570.883 712.374 559.061 686.972 543.407 687.181C527.437 687.394 514.458 718.11 499.946 709.467C486.427 701.415 494.317 672.877 489.086 654.828C483.453 635.391 458.335 616.583 468.322 600.347C480.232 580.984 505.207 600.322 524.211 597.723C531.035 596.79 537.262 594.034 543.407 590.077Z" fill="#F27F1A"/>
</svg>
